<svg width="600" height="240" viewBox="0 0 600 240" fill="none" xmlns="http://www.w3.org/2000/svg">
<path d="M116.199 109.189H182.312L80.1152 220H68.6929L86.1132 130.811H20L122.197 20H133.619L116.199 109.189Z" fill="#58B836"/>
<path d="M314.241 191.304H279.168L226.468 48.5714H258.843L296.794 157.363H297.873L335.285 48.5714H366.941L314.241 191.304ZM408.849 193.626C439.606 193.626 463.348 173.976 463.348 138.784C463.348 103.592 439.966 83.9419 408.849 83.9419C374.315 83.9419 354.351 107.522 354.351 138.784C354.351 174.155 378.812 193.626 408.849 193.626ZM408.849 167.545C392.841 167.545 384.028 154.683 384.028 138.784C384.028 122.885 392.841 110.023 408.849 110.023C425.756 110.023 433.67 123.6 433.67 138.784C433.67 153.968 425.756 167.545 408.849 167.545ZM475.938 191.483H504.716V48.5714H475.938V191.483ZM579 191.483H546.265C532.415 191.483 522.703 185.23 522.703 168.26L522.883 48.5714H551.121V86.0856H579V108.951H551.481V168.617H579V191.483Z" fill="#1A1A1A"/>
</svg>
